<?xml version="1.0" encoding="UTF-8"?>
<svg id="Layer_2" data-name="Layer 2" xmlns="http://www.w3.org/2000/svg" viewBox="0 0 235.91 112.41">
  <defs>
    <style>
      .cls-1 {
        stroke: #231f20;
        stroke-miterlimit: 10;
      }

      .cls-1, .cls-2 {
        fill: #000;
      }

      .cls-3 {
        fill: #fdc20f;
        stroke-width: 0px;
      }

      .cls-2 {
        font-family: Poppins-Regular, Poppins;
        font-size: 24px;
      }
    </style>
  </defs>
  <g id="Layer_1-2" data-name="Layer 1">
    <path class="cls-1" d="M111.91,56.21c0,30.76-24.94,55.7-55.7,55.7H.5V.5h55.71c30.76,0,55.7,24.94,55.7,55.71Z"/>
    <g>
      <rect class="cls-3" x="34.94" y="16.84" width="30.25" height="6.86" rx="3.43" ry="3.43"/>
      <rect class="cls-3" x="25.19" y="68.78" width="13.32" height="6.86" rx="3.43" ry="3.43"/>
      <rect class="cls-3" x="50.11" y="26.89" width="38.63" height="6.86" rx="3.43" ry="3.43"/>
      <rect class="cls-3" x="62" y="36.95" width="30.82" height="6.86" rx="3.43" ry="3.43"/>
      <rect class="cls-3" x="68.67" y="46.93" width="26.52" height="6.86" rx="3.43" ry="3.43"/>
      <rect class="cls-3" x="68.67" y="57.06" width="26.53" height="6.86" rx="3.43" ry="3.43"/>
      <rect class="cls-3" x="62" y="67.11" width="29.46" height="6.86" rx="3.43" ry="3.43"/>
      <rect class="cls-3" x="50.11" y="77.17" width="33.6" height="6.86" rx="3.43" ry="3.43"/>
      <rect class="cls-3" x="25.91" y="87.22" width="40.14" height="6.86" rx="3.43" ry="3.43"/>
    </g>
    <text class="cls-2" transform="translate(132.3 50.53)"><tspan x="0" y="0">Design</tspan><tspan x="0" y="24">by Great</tspan></text>
  </g>
</svg>