<?xml version="1.0" encoding="UTF-8"?>
<svg id="Layer_2" data-name="Layer 2" xmlns="http://www.w3.org/2000/svg" viewBox="0 0 105.65 105.65">
  <defs>
    <style>
      .cls-1 {
        fill: #fdc20f;
      }

      .cls-1, .cls-2 {
        stroke-width: 0px;
      }

      .cls-2 {
        fill: #fff;
      }
    </style>
  </defs>
  <g id="Layer_1-2" data-name="Layer 1">
    <circle class="cls-1" cx="52.83" cy="52.83" r="52.83"/>
    <g>
      <path class="cls-2" d="M58.59,60.68l-2.23.1-2.33-4.95-4.18-8.69h-7.46l-.21-2.35,10.72-.23s5.06-3.4-.57-5.32c-1.06-.36-4.14-1.69-4.14-1.69l-6.26-2.6s-3.99-1-8.5,7.18c-2.23,4.04,0,5.64,0,5.64l5.36,5.45,4.14,5.17,1.62,9.02-1.62,6.87h23.35s-.32-11.39.44-11.57c6.49-1.5,3.18-8.1,3.18-8.1l-15.23-7.98-2.34.71,3.26,6.93,1.75,3.88"/>
      <path class="cls-2" d="M67.27,43.43l-2.31,4.92c-.33.71-.05,1.56.65,1.93l1.42.73,1.93,1c.76.39,1.69.06,2.03-.73l2.13-5.02c.3-.71,0-1.52-.68-1.88l-3.16-1.63c-.74-.38-1.65-.07-2,.68Z"/>
      <path class="cls-2" d="M61.57,36.64l-2.31,4.92c-.33.71-.05,1.56.65,1.93l1.42.73,1.93,1c.76.39,1.69.06,2.03-.73l2.13-5.02c.3-.71,0-1.52-.68-1.88l-3.16-1.63c-.74-.38-1.65-.07-2,.68Z"/>
      <path class="cls-2" d="M55.03,30.95l-2.31,4.92c-.33.71-.05,1.56.65,1.93l1.42.73,1.93,1c.76.39,1.69.06,2.03-.73l2.13-5.02c.3-.71,0-1.52-.68-1.88l-3.16-1.63c-.74-.38-1.65-.07-2,.68Z"/>
      <path class="cls-2" d="M47.37,27.05l-2.31,4.92c-.33.71-.05,1.56.65,1.93l1.42.73,1.93,1c.76.39,1.69.06,2.03-.73l2.13-5.02c.3-.71,0-1.52-.68-1.88l-3.16-1.63c-.74-.38-1.65-.07-2,.68Z"/>
    </g>
  </g>
</svg>