<?xml version="1.0" encoding="UTF-8"?>
<svg id="Layer_2" data-name="Layer 2" xmlns="http://www.w3.org/2000/svg" viewBox="0 0 75 52.39">
  <defs>
    <style>
      .cls-1 {
        fill: #000;
        stroke-width: 0px;
      }
    </style>
  </defs>
  <g id="Layer_1-2" data-name="Layer 1">
    <path class="cls-1" d="M69.69,11H5.31c-2.93,0-5.31-2.46-5.31-5.5h0C0,2.46,2.38,0,5.31,0h64.38c2.93,0,5.31,2.46,5.31,5.5h0c0,3.04-2.38,5.5-5.31,5.5Z"/>
    <path class="cls-1" d="M69.69,31.69H5.31c-2.93,0-5.31-2.46-5.31-5.5h0c0-3.04,2.38-5.5,5.31-5.5h64.38c2.93,0,5.31,2.46,5.31,5.5h0c0,3.04-2.38,5.5-5.31,5.5Z"/>
    <path class="cls-1" d="M69.69,52.39H5.31c-2.93,0-5.31-2.46-5.31-5.5h0c0-3.04,2.38-5.5,5.31-5.5h64.38c2.93,0,5.31,2.46,5.31,5.5h0c0,3.04-2.38,5.5-5.31,5.5Z"/>
  </g>
</svg>